<?xml version="1.0" encoding="utf-8"?>
<!-- Generator: Adobe Illustrator 18.0.0, SVG Export Plug-In . SVG Version: 6.00 Build 0)  -->
<!DOCTYPE svg PUBLIC "-//W3C//DTD SVG 1.1//EN" "http://www.w3.org/Graphics/SVG/1.1/DTD/svg11.dtd">
<svg version="1.1" id="Layer_1" xmlns="http://www.w3.org/2000/svg" xmlns:xlink="http://www.w3.org/1999/xlink" x="0px" y="0px"
	 viewBox="0 0 26 26" enable-background="new 0 0 26 26" xml:space="preserve">
<path fill="#FFFFFF" d="M24.2,8.9c0.5,1.3,0.7,2.7,0.7,4.1c0,6.6-5.4,11.9-11.9,11.9S1.1,19.6,1.1,13S6.4,1.1,13,1.1
	c1.9,0,3.6,0.4,5.2,1.2l0.5-0.9C17,0.5,15,0,13,0C5.8,0,0,5.8,0,13s5.8,13,13,13s13-5.8,13-13c0-1.6-0.3-3.1-0.8-4.5L24.2,8.9z"/>
</svg>
